<?xml version="1.0" encoding="iso-8859-1"?>
<!-- Uploaded to: SVG Repo, www.svgrepo.com, Generator: SVG Repo Mixer Tools -->
<svg fill="#000000" height="80px" width="80px" version="1.1" id="Capa_1" xmlns="http://www.w3.org/2000/svg" xmlns:xlink="http://www.w3.org/1999/xlink" 
	 viewBox="0 0 325.738 325.738" xml:space="preserve">
<g>
	<g>
		<path d="M202.138,156.467h-76.494c-24.138,0-43.775,19.638-43.775,43.775v39.57h164.045v-39.57
			C245.913,176.105,226.275,156.467,202.138,156.467z M168.423,171.467l-4.532,6.514l-4.532-6.514L168.423,171.467L168.423,171.467z
			 M96.868,200.243c0-15.867,12.908-28.775,28.775-28.775h15.441l13.669,19.645l-23.449,33.7H96.868V200.243z M163.891,204.244
			l14.312,20.569h-28.624L163.891,204.244z M230.913,224.813h-34.436l-23.449-33.701l13.669-19.645h15.441
			c15.867,0,28.775,12.909,28.775,28.775L230.913,224.813L230.913,224.813z" fill="#39b424"/>
		<path d="M163.891,152.941c24.271,0,44.017-19.746,44.017-44.017s-19.746-44.016-44.017-44.016s-44.017,19.746-44.017,44.016
			C119.874,133.196,139.62,152.941,163.891,152.941z M163.891,79.909c16,0,29.017,13.017,29.017,29.016
			c0,16-13.017,29.017-29.017,29.017s-29.017-13.017-29.017-29.017C134.874,92.925,147.891,79.909,163.891,79.909z" fill="#39b424"/>
		<path d="M325.738,52.104V0h-52.104v15h26.497L251.38,63.751c-23.406-20.475-54.022-32.901-87.49-32.901
			c-33.986,0-65.031,12.816-88.572,33.862L25.607,15h26.497V0H0v52.104h15V25.607l49.712,49.712
			c-21.045,23.541-33.861,54.585-33.861,88.572c0,33.467,12.426,64.084,32.901,87.49L15,300.131v-26.497H0v52.104h52.104v-15H25.607
			l48.635-48.635c23.666,21.621,55.143,34.828,89.649,34.828c33.987,0,65.032-12.816,88.572-33.861l47.668,47.668h-26.497v15h52.104
			v-52.104h-15v26.497l-47.668-47.668c21.045-23.541,33.862-54.586,33.862-88.572c0-34.506-13.207-65.983-34.828-89.649
			l48.635-48.635v26.497L325.738,52.104L325.738,52.104z M163.891,281.931c-65.088,0-118.04-52.953-118.04-118.041
			S98.803,45.85,163.891,45.85s118.041,52.953,118.041,118.041S228.979,281.931,163.891,281.931z" fill="#39b424"/>
	</g>
	<g>
	</g>
	<g>
	</g>
	<g>
	</g>
	<g>
	</g>
	<g>
	</g>
	<g>
	</g>
	<g>
	</g>
	<g>
	</g>
	<g>
	</g>
	<g>
	</g>
	<g>
	</g>
	<g>
	</g>
	<g>
	</g>
	<g>
	</g>
	<g>
	</g>
</g>
</svg>